#usda 1.0
(
    doc = """A sample catalogue for the signal types in the xodr test maps.
Each prim overrides one type class from a stage xodr_usd writes.
See usd/SCHEMA.md, section Catalogues."""
)

over "_SignalTypes"
{
    # speed limit
    over "DE_274__1" (
        prepend apiSchemas = ["SemanticsLabelsAPI:class"]
    )
    {
        token[] semantics:labels:class = ["traffic_sign", "speed_limit"]

        over "Board"
        {
            float3[] extent = [(0, -0.5, 0), (0, 0.5, 1)]
            int[] faceVertexCounts = [24]
            int[] faceVertexIndices = [0, 1, 2, 3, 4, 5, 6, 7, 8, 9, 10, 11, 12, 13, 14, 15, 16, 17, 18, 19, 20, 21, 22, 23]
            point3f[] points = [(0, 0.5, 0.5), (0, 0.483, 0.6294), (0, 0.433, 0.75), (0, 0.3536, 0.8536), (0, 0.25, 0.933), (0, 0.1294, 0.983), (0, 0, 1), (0, -0.1294, 0.983), (0, -0.25, 0.933), (0, -0.3536, 0.8536), (0, -0.433, 0.75), (0, -0.483, 0.6294), (0, -0.5, 0.5), (0, -0.483, 0.3706), (0, -0.433, 0.25), (0, -0.3536, 0.1464), (0, -0.25, 0.067), (0, -0.1294, 0.017), (0, 0, 0), (0, 0.1294, 0.017), (0, 0.25, 0.067), (0, 0.3536, 0.1464), (0, 0.433, 0.25), (0, 0.483, 0.3706)]
            color3f[] primvars:displayColor = [(0.8, 0.1, 0.1)]
        }

        def Mesh "Face"
        {
            float3[] extent = [(0.005, -0.4, 0.1), (0.005, 0.4, 0.9)]
            int[] faceVertexCounts = [24]
            int[] faceVertexIndices = [0, 1, 2, 3, 4, 5, 6, 7, 8, 9, 10, 11, 12, 13, 14, 15, 16, 17, 18, 19, 20, 21, 22, 23]
            point3f[] points = [(0.005, 0.4, 0.5), (0.005, 0.3864, 0.6035), (0.005, 0.3464, 0.7), (0.005, 0.2828, 0.7828), (0.005, 0.2, 0.8464), (0.005, 0.1035, 0.8864), (0.005, 0, 0.9), (0.005, -0.1035, 0.8864), (0.005, -0.2, 0.8464), (0.005, -0.2828, 0.7828), (0.005, -0.3464, 0.7), (0.005, -0.3864, 0.6035), (0.005, -0.4, 0.5), (0.005, -0.3864, 0.3965), (0.005, -0.3464, 0.3), (0.005, -0.2828, 0.2172), (0.005, -0.2, 0.1536), (0.005, -0.1035, 0.1136), (0.005, 0, 0.1), (0.005, 0.1035, 0.1136), (0.005, 0.2, 0.1536), (0.005, 0.2828, 0.2172), (0.005, 0.3464, 0.3), (0.005, 0.3864, 0.3965)]
            color3f[] primvars:displayColor = [(0.95, 0.95, 0.95)]
            uniform bool doubleSided = 0
            uniform token subdivisionScheme = "none"
        }
    }

    # speed limit 30
    over "DE_274_53" (
        prepend apiSchemas = ["SemanticsLabelsAPI:class"]
    )
    {
        token[] semantics:labels:class = ["traffic_sign", "speed_limit"]

        over "Board"
        {
            float3[] extent = [(0, -0.5, 0), (0, 0.5, 1)]
            int[] faceVertexCounts = [24]
            int[] faceVertexIndices = [0, 1, 2, 3, 4, 5, 6, 7, 8, 9, 10, 11, 12, 13, 14, 15, 16, 17, 18, 19, 20, 21, 22, 23]
            point3f[] points = [(0, 0.5, 0.5), (0, 0.483, 0.6294), (0, 0.433, 0.75), (0, 0.3536, 0.8536), (0, 0.25, 0.933), (0, 0.1294, 0.983), (0, 0, 1), (0, -0.1294, 0.983), (0, -0.25, 0.933), (0, -0.3536, 0.8536), (0, -0.433, 0.75), (0, -0.483, 0.6294), (0, -0.5, 0.5), (0, -0.483, 0.3706), (0, -0.433, 0.25), (0, -0.3536, 0.1464), (0, -0.25, 0.067), (0, -0.1294, 0.017), (0, 0, 0), (0, 0.1294, 0.017), (0, 0.25, 0.067), (0, 0.3536, 0.1464), (0, 0.433, 0.25), (0, 0.483, 0.3706)]
            color3f[] primvars:displayColor = [(0.8, 0.1, 0.1)]
        }

        def Mesh "Face"
        {
            float3[] extent = [(0.005, -0.4, 0.1), (0.005, 0.4, 0.9)]
            int[] faceVertexCounts = [24]
            int[] faceVertexIndices = [0, 1, 2, 3, 4, 5, 6, 7, 8, 9, 10, 11, 12, 13, 14, 15, 16, 17, 18, 19, 20, 21, 22, 23]
            point3f[] points = [(0.005, 0.4, 0.5), (0.005, 0.3864, 0.6035), (0.005, 0.3464, 0.7), (0.005, 0.2828, 0.7828), (0.005, 0.2, 0.8464), (0.005, 0.1035, 0.8864), (0.005, 0, 0.9), (0.005, -0.1035, 0.8864), (0.005, -0.2, 0.8464), (0.005, -0.2828, 0.7828), (0.005, -0.3464, 0.7), (0.005, -0.3864, 0.6035), (0.005, -0.4, 0.5), (0.005, -0.3864, 0.3965), (0.005, -0.3464, 0.3), (0.005, -0.2828, 0.2172), (0.005, -0.2, 0.1536), (0.005, -0.1035, 0.1136), (0.005, 0, 0.1), (0.005, 0.1035, 0.1136), (0.005, 0.2, 0.1536), (0.005, 0.2828, 0.2172), (0.005, 0.3464, 0.3), (0.005, 0.3864, 0.3965)]
            color3f[] primvars:displayColor = [(0.95, 0.95, 0.95)]
            uniform bool doubleSided = 0
            uniform token subdivisionScheme = "none"
        }
    }

    # speed limit 50
    over "DE_274_55" (
        prepend apiSchemas = ["SemanticsLabelsAPI:class"]
    )
    {
        token[] semantics:labels:class = ["traffic_sign", "speed_limit"]

        over "Board"
        {
            float3[] extent = [(0, -0.5, 0), (0, 0.5, 1)]
            int[] faceVertexCounts = [24]
            int[] faceVertexIndices = [0, 1, 2, 3, 4, 5, 6, 7, 8, 9, 10, 11, 12, 13, 14, 15, 16, 17, 18, 19, 20, 21, 22, 23]
            point3f[] points = [(0, 0.5, 0.5), (0, 0.483, 0.6294), (0, 0.433, 0.75), (0, 0.3536, 0.8536), (0, 0.25, 0.933), (0, 0.1294, 0.983), (0, 0, 1), (0, -0.1294, 0.983), (0, -0.25, 0.933), (0, -0.3536, 0.8536), (0, -0.433, 0.75), (0, -0.483, 0.6294), (0, -0.5, 0.5), (0, -0.483, 0.3706), (0, -0.433, 0.25), (0, -0.3536, 0.1464), (0, -0.25, 0.067), (0, -0.1294, 0.017), (0, 0, 0), (0, 0.1294, 0.017), (0, 0.25, 0.067), (0, 0.3536, 0.1464), (0, 0.433, 0.25), (0, 0.483, 0.3706)]
            color3f[] primvars:displayColor = [(0.8, 0.1, 0.1)]
        }

        def Mesh "Face"
        {
            float3[] extent = [(0.005, -0.4, 0.1), (0.005, 0.4, 0.9)]
            int[] faceVertexCounts = [24]
            int[] faceVertexIndices = [0, 1, 2, 3, 4, 5, 6, 7, 8, 9, 10, 11, 12, 13, 14, 15, 16, 17, 18, 19, 20, 21, 22, 23]
            point3f[] points = [(0.005, 0.4, 0.5), (0.005, 0.3864, 0.6035), (0.005, 0.3464, 0.7), (0.005, 0.2828, 0.7828), (0.005, 0.2, 0.8464), (0.005, 0.1035, 0.8864), (0.005, 0, 0.9), (0.005, -0.1035, 0.8864), (0.005, -0.2, 0.8464), (0.005, -0.2828, 0.7828), (0.005, -0.3464, 0.7), (0.005, -0.3864, 0.6035), (0.005, -0.4, 0.5), (0.005, -0.3864, 0.3965), (0.005, -0.3464, 0.3), (0.005, -0.2828, 0.2172), (0.005, -0.2, 0.1536), (0.005, -0.1035, 0.1136), (0.005, 0, 0.1), (0.005, 0.1035, 0.1136), (0.005, 0.2, 0.1536), (0.005, 0.2828, 0.2172), (0.005, 0.3464, 0.3), (0.005, 0.3864, 0.3965)]
            color3f[] primvars:displayColor = [(0.95, 0.95, 0.95)]
            uniform bool doubleSided = 0
            uniform token subdivisionScheme = "none"
        }
    }

    # speed limit 60
    over "DE_274_60" (
        prepend apiSchemas = ["SemanticsLabelsAPI:class"]
    )
    {
        token[] semantics:labels:class = ["traffic_sign", "speed_limit"]

        over "Board"
        {
            float3[] extent = [(0, -0.5, 0), (0, 0.5, 1)]
            int[] faceVertexCounts = [24]
            int[] faceVertexIndices = [0, 1, 2, 3, 4, 5, 6, 7, 8, 9, 10, 11, 12, 13, 14, 15, 16, 17, 18, 19, 20, 21, 22, 23]
            point3f[] points = [(0, 0.5, 0.5), (0, 0.483, 0.6294), (0, 0.433, 0.75), (0, 0.3536, 0.8536), (0, 0.25, 0.933), (0, 0.1294, 0.983), (0, 0, 1), (0, -0.1294, 0.983), (0, -0.25, 0.933), (0, -0.3536, 0.8536), (0, -0.433, 0.75), (0, -0.483, 0.6294), (0, -0.5, 0.5), (0, -0.483, 0.3706), (0, -0.433, 0.25), (0, -0.3536, 0.1464), (0, -0.25, 0.067), (0, -0.1294, 0.017), (0, 0, 0), (0, 0.1294, 0.017), (0, 0.25, 0.067), (0, 0.3536, 0.1464), (0, 0.433, 0.25), (0, 0.483, 0.3706)]
            color3f[] primvars:displayColor = [(0.8, 0.1, 0.1)]
        }

        def Mesh "Face"
        {
            float3[] extent = [(0.005, -0.4, 0.1), (0.005, 0.4, 0.9)]
            int[] faceVertexCounts = [24]
            int[] faceVertexIndices = [0, 1, 2, 3, 4, 5, 6, 7, 8, 9, 10, 11, 12, 13, 14, 15, 16, 17, 18, 19, 20, 21, 22, 23]
            point3f[] points = [(0.005, 0.4, 0.5), (0.005, 0.3864, 0.6035), (0.005, 0.3464, 0.7), (0.005, 0.2828, 0.7828), (0.005, 0.2, 0.8464), (0.005, 0.1035, 0.8864), (0.005, 0, 0.9), (0.005, -0.1035, 0.8864), (0.005, -0.2, 0.8464), (0.005, -0.2828, 0.7828), (0.005, -0.3464, 0.7), (0.005, -0.3864, 0.6035), (0.005, -0.4, 0.5), (0.005, -0.3864, 0.3965), (0.005, -0.3464, 0.3), (0.005, -0.2828, 0.2172), (0.005, -0.2, 0.1536), (0.005, -0.1035, 0.1136), (0.005, 0, 0.1), (0.005, 0.1035, 0.1136), (0.005, 0.2, 0.1536), (0.005, 0.2828, 0.2172), (0.005, 0.3464, 0.3), (0.005, 0.3864, 0.3965)]
            color3f[] primvars:displayColor = [(0.95, 0.95, 0.95)]
            uniform bool doubleSided = 0
            uniform token subdivisionScheme = "none"
        }
    }

    # weight limit
    over "DE_262__1" (
        prepend apiSchemas = ["SemanticsLabelsAPI:class"]
    )
    {
        token[] semantics:labels:class = ["traffic_sign", "prohibitory"]

        over "Board"
        {
            float3[] extent = [(0, -0.5, 0), (0, 0.5, 1)]
            int[] faceVertexCounts = [24]
            int[] faceVertexIndices = [0, 1, 2, 3, 4, 5, 6, 7, 8, 9, 10, 11, 12, 13, 14, 15, 16, 17, 18, 19, 20, 21, 22, 23]
            point3f[] points = [(0, 0.5, 0.5), (0, 0.483, 0.6294), (0, 0.433, 0.75), (0, 0.3536, 0.8536), (0, 0.25, 0.933), (0, 0.1294, 0.983), (0, 0, 1), (0, -0.1294, 0.983), (0, -0.25, 0.933), (0, -0.3536, 0.8536), (0, -0.433, 0.75), (0, -0.483, 0.6294), (0, -0.5, 0.5), (0, -0.483, 0.3706), (0, -0.433, 0.25), (0, -0.3536, 0.1464), (0, -0.25, 0.067), (0, -0.1294, 0.017), (0, 0, 0), (0, 0.1294, 0.017), (0, 0.25, 0.067), (0, 0.3536, 0.1464), (0, 0.433, 0.25), (0, 0.483, 0.3706)]
            color3f[] primvars:displayColor = [(0.8, 0.1, 0.1)]
        }

        def Mesh "Face"
        {
            float3[] extent = [(0.005, -0.4, 0.1), (0.005, 0.4, 0.9)]
            int[] faceVertexCounts = [24]
            int[] faceVertexIndices = [0, 1, 2, 3, 4, 5, 6, 7, 8, 9, 10, 11, 12, 13, 14, 15, 16, 17, 18, 19, 20, 21, 22, 23]
            point3f[] points = [(0.005, 0.4, 0.5), (0.005, 0.3864, 0.6035), (0.005, 0.3464, 0.7), (0.005, 0.2828, 0.7828), (0.005, 0.2, 0.8464), (0.005, 0.1035, 0.8864), (0.005, 0, 0.9), (0.005, -0.1035, 0.8864), (0.005, -0.2, 0.8464), (0.005, -0.2828, 0.7828), (0.005, -0.3464, 0.7), (0.005, -0.3864, 0.6035), (0.005, -0.4, 0.5), (0.005, -0.3864, 0.3965), (0.005, -0.3464, 0.3), (0.005, -0.2828, 0.2172), (0.005, -0.2, 0.1536), (0.005, -0.1035, 0.1136), (0.005, 0, 0.1), (0.005, 0.1035, 0.1136), (0.005, 0.2, 0.1536), (0.005, 0.2828, 0.2172), (0.005, 0.3464, 0.3), (0.005, 0.3864, 0.3965)]
            color3f[] primvars:displayColor = [(0.95, 0.95, 0.95)]
            uniform bool doubleSided = 0
            uniform token subdivisionScheme = "none"
        }
    }

    # no lorries
    over "DE_253_" (
        prepend apiSchemas = ["SemanticsLabelsAPI:class"]
    )
    {
        token[] semantics:labels:class = ["traffic_sign", "prohibitory"]

        over "Board"
        {
            float3[] extent = [(0, -0.5, 0), (0, 0.5, 1)]
            int[] faceVertexCounts = [24]
            int[] faceVertexIndices = [0, 1, 2, 3, 4, 5, 6, 7, 8, 9, 10, 11, 12, 13, 14, 15, 16, 17, 18, 19, 20, 21, 22, 23]
            point3f[] points = [(0, 0.5, 0.5), (0, 0.483, 0.6294), (0, 0.433, 0.75), (0, 0.3536, 0.8536), (0, 0.25, 0.933), (0, 0.1294, 0.983), (0, 0, 1), (0, -0.1294, 0.983), (0, -0.25, 0.933), (0, -0.3536, 0.8536), (0, -0.433, 0.75), (0, -0.483, 0.6294), (0, -0.5, 0.5), (0, -0.483, 0.3706), (0, -0.433, 0.25), (0, -0.3536, 0.1464), (0, -0.25, 0.067), (0, -0.1294, 0.017), (0, 0, 0), (0, 0.1294, 0.017), (0, 0.25, 0.067), (0, 0.3536, 0.1464), (0, 0.433, 0.25), (0, 0.483, 0.3706)]
            color3f[] primvars:displayColor = [(0.8, 0.1, 0.1)]
        }

        def Mesh "Face"
        {
            float3[] extent = [(0.005, -0.4, 0.1), (0.005, 0.4, 0.9)]
            int[] faceVertexCounts = [24]
            int[] faceVertexIndices = [0, 1, 2, 3, 4, 5, 6, 7, 8, 9, 10, 11, 12, 13, 14, 15, 16, 17, 18, 19, 20, 21, 22, 23]
            point3f[] points = [(0.005, 0.4, 0.5), (0.005, 0.3864, 0.6035), (0.005, 0.3464, 0.7), (0.005, 0.2828, 0.7828), (0.005, 0.2, 0.8464), (0.005, 0.1035, 0.8864), (0.005, 0, 0.9), (0.005, -0.1035, 0.8864), (0.005, -0.2, 0.8464), (0.005, -0.2828, 0.7828), (0.005, -0.3464, 0.7), (0.005, -0.3864, 0.6035), (0.005, -0.4, 0.5), (0.005, -0.3864, 0.3965), (0.005, -0.3464, 0.3), (0.005, -0.2828, 0.2172), (0.005, -0.2, 0.1536), (0.005, -0.1035, 0.1136), (0.005, 0, 0.1), (0.005, 0.1035, 0.1136), (0.005, 0.2, 0.1536), (0.005, 0.2828, 0.2172), (0.005, 0.3464, 0.3), (0.005, 0.3864, 0.3965)]
            color3f[] primvars:displayColor = [(0.95, 0.95, 0.95)]
            uniform bool doubleSided = 0
            uniform token subdivisionScheme = "none"
        }
    }

    # danger
    over "DE_101__1" (
        prepend apiSchemas = ["SemanticsLabelsAPI:class"]
    )
    {
        token[] semantics:labels:class = ["traffic_sign", "warning"]

        over "Board"
        {
            float3[] extent = [(0, -0.5, 0.067), (0, 0.5, 0.933)]
            int[] faceVertexCounts = [3]
            int[] faceVertexIndices = [0, 1, 2]
            point3f[] points = [(0, -0.5, 0.067), (0, 0.5, 0.067), (0, 0, 0.933)]
            color3f[] primvars:displayColor = [(0.8, 0.1, 0.1)]
        }

        def Mesh "Face"
        {
            float3[] extent = [(0.005, -0.36, 0.15), (0.005, 0.36, 0.77)]
            int[] faceVertexCounts = [3]
            int[] faceVertexIndices = [0, 1, 2]
            point3f[] points = [(0.005, -0.36, 0.15), (0.005, 0.36, 0.15), (0.005, 0, 0.77)]
            color3f[] primvars:displayColor = [(0.95, 0.95, 0.95)]
            uniform bool doubleSided = 0
            uniform token subdivisionScheme = "none"
        }
    }

    # give way
    over "DE_205__1" (
        prepend apiSchemas = ["SemanticsLabelsAPI:class"]
    )
    {
        token[] semantics:labels:class = ["traffic_sign", "priority"]

        over "Board"
        {
            float3[] extent = [(0, -0.5, 0.067), (0, 0.5, 0.933)]
            int[] faceVertexCounts = [3]
            int[] faceVertexIndices = [0, 1, 2]
            point3f[] points = [(0, 0, 0.067), (0, 0.5, 0.933), (0, -0.5, 0.933)]
            color3f[] primvars:displayColor = [(0.8, 0.1, 0.1)]
        }

        def Mesh "Face"
        {
            float3[] extent = [(0.005, -0.36, 0.23), (0.005, 0.36, 0.85)]
            int[] faceVertexCounts = [3]
            int[] faceVertexIndices = [0, 1, 2]
            point3f[] points = [(0.005, 0, 0.23), (0.005, 0.36, 0.85), (0.005, -0.36, 0.85)]
            color3f[] primvars:displayColor = [(0.95, 0.95, 0.95)]
            uniform bool doubleSided = 0
            uniform token subdivisionScheme = "none"
        }
    }

    # plate: lorries only
    over "DE_1048_12" (
        prepend apiSchemas = ["SemanticsLabelsAPI:class"]
    )
    {
        token[] semantics:labels:class = ["traffic_sign", "supplementary"]

        over "Board"
        {
            float3[] extent = [(0, -0.5, 0), (0, 0.5, 1)]
            int[] faceVertexCounts = [4]
            int[] faceVertexIndices = [0, 1, 2, 3]
            point3f[] points = [(0, -0.5, 0), (0, 0.5, 0), (0, 0.5, 1), (0, -0.5, 1)]
            color3f[] primvars:displayColor = [(0.95, 0.95, 0.95)]
        }
    }

    # town entrance
    over "DE_310__1" (
        prepend apiSchemas = ["SemanticsLabelsAPI:class"]
    )
    {
        token[] semantics:labels:class = ["traffic_sign", "information"]

        over "Board"
        {
            float3[] extent = [(0, -0.5, 0), (0, 0.5, 1)]
            int[] faceVertexCounts = [4]
            int[] faceVertexIndices = [0, 1, 2, 3]
            point3f[] points = [(0, -0.5, 0), (0, 0.5, 0), (0, 0.5, 1), (0, -0.5, 1)]
            color3f[] primvars:displayColor = [(0.95, 0.8, 0.1)]
        }
    }

    # motorway exit
    over "DE_332__1" (
        prepend apiSchemas = ["SemanticsLabelsAPI:class"]
    )
    {
        token[] semantics:labels:class = ["traffic_sign", "direction"]

        over "Board"
        {
            float3[] extent = [(0, -0.5, 0), (0, 0.5, 1)]
            int[] faceVertexCounts = [4]
            int[] faceVertexIndices = [0, 1, 2, 3]
            point3f[] points = [(0, -0.5, 0), (0, 0.5, 0), (0, 0.5, 1), (0, -0.5, 1)]
            color3f[] primvars:displayColor = [(0.1, 0.3, 0.7)]
        }
    }

    # traffic light, red, amber and green
    over "OPENDRIVE_1000001__1" (
        prepend apiSchemas = ["SemanticsLabelsAPI:class"]
    )
    {
        token[] semantics:labels:class = ["traffic_light"]

        over "Board"
        {
            float3[] extent = [(-0.15, -0.5, 0), (0.15, 0.5, 1)]
            int[] faceVertexCounts = [4, 4, 4, 4, 4, 4]
            int[] faceVertexIndices = [0, 1, 2, 3, 4, 5, 6, 7, 8, 9, 10, 11, 12, 13, 14, 15, 16, 17, 18, 19, 20, 21, 22, 23]
            point3f[] points = [(0.15, -0.5, 0), (0.15, 0.5, 0), (0.15, 0.5, 1), (0.15, -0.5, 1), (-0.15, 0.5, 0), (-0.15, -0.5, 0), (-0.15, -0.5, 1), (-0.15, 0.5, 1), (-0.15, -0.5, 0), (0.15, -0.5, 0), (0.15, -0.5, 1), (-0.15, -0.5, 1), (0.15, 0.5, 0), (-0.15, 0.5, 0), (-0.15, 0.5, 1), (0.15, 0.5, 1), (-0.15, -0.5, 1), (0.15, -0.5, 1), (0.15, 0.5, 1), (-0.15, 0.5, 1), (-0.15, 0.5, 0), (0.15, 0.5, 0), (0.15, -0.5, 0), (-0.15, -0.5, 0)]
            color3f[] primvars:displayColor = [(0.1, 0.1, 0.1)]
        }

        def Mesh "Red"
        {
            float3[] extent = [(0.155, -0.35, 0.7167), (0.155, 0.35, 0.95)]
            int[] faceVertexCounts = [24]
            int[] faceVertexIndices = [0, 1, 2, 3, 4, 5, 6, 7, 8, 9, 10, 11, 12, 13, 14, 15, 16, 17, 18, 19, 20, 21, 22, 23]
            point3f[] points = [(0.155, 0.35, 0.8333), (0.155, 0.3381, 0.8635), (0.155, 0.3031, 0.8917), (0.155, 0.2475, 0.9158), (0.155, 0.175, 0.9344), (0.155, 0.0906, 0.946), (0.155, 0, 0.95), (0.155, -0.0906, 0.946), (0.155, -0.175, 0.9344), (0.155, -0.2475, 0.9158), (0.155, -0.3031, 0.8917), (0.155, -0.3381, 0.8635), (0.155, -0.35, 0.8333), (0.155, -0.3381, 0.8031), (0.155, -0.3031, 0.775), (0.155, -0.2475, 0.7508), (0.155, -0.175, 0.7323), (0.155, -0.0906, 0.7206), (0.155, 0, 0.7167), (0.155, 0.0906, 0.7206), (0.155, 0.175, 0.7323), (0.155, 0.2475, 0.7508), (0.155, 0.3031, 0.775), (0.155, 0.3381, 0.8031)]
            color3f[] primvars:displayColor = [(0.9, 0.1, 0.1)]
            uniform bool doubleSided = 0
            uniform token subdivisionScheme = "none"
        }

        def Mesh "Amber"
        {
            float3[] extent = [(0.155, -0.35, 0.3833), (0.155, 0.35, 0.6167)]
            int[] faceVertexCounts = [24]
            int[] faceVertexIndices = [0, 1, 2, 3, 4, 5, 6, 7, 8, 9, 10, 11, 12, 13, 14, 15, 16, 17, 18, 19, 20, 21, 22, 23]
            point3f[] points = [(0.155, 0.35, 0.5), (0.155, 0.3381, 0.5302), (0.155, 0.3031, 0.5583), (0.155, 0.2475, 0.5825), (0.155, 0.175, 0.601), (0.155, 0.0906, 0.6127), (0.155, 0, 0.6167), (0.155, -0.0906, 0.6127), (0.155, -0.175, 0.601), (0.155, -0.2475, 0.5825), (0.155, -0.3031, 0.5583), (0.155, -0.3381, 0.5302), (0.155, -0.35, 0.5), (0.155, -0.3381, 0.4698), (0.155, -0.3031, 0.4417), (0.155, -0.2475, 0.4175), (0.155, -0.175, 0.399), (0.155, -0.0906, 0.3873), (0.155, 0, 0.3833), (0.155, 0.0906, 0.3873), (0.155, 0.175, 0.399), (0.155, 0.2475, 0.4175), (0.155, 0.3031, 0.4417), (0.155, 0.3381, 0.4698)]
            color3f[] primvars:displayColor = [(0.95, 0.6, 0.05)]
            uniform bool doubleSided = 0
            uniform token subdivisionScheme = "none"
        }

        def Mesh "Green"
        {
            float3[] extent = [(0.155, -0.35, 0.05), (0.155, 0.35, 0.2833)]
            int[] faceVertexCounts = [24]
            int[] faceVertexIndices = [0, 1, 2, 3, 4, 5, 6, 7, 8, 9, 10, 11, 12, 13, 14, 15, 16, 17, 18, 19, 20, 21, 22, 23]
            point3f[] points = [(0.155, 0.35, 0.1667), (0.155, 0.3381, 0.1969), (0.155, 0.3031, 0.225), (0.155, 0.2475, 0.2492), (0.155, 0.175, 0.2677), (0.155, 0.0906, 0.2794), (0.155, 0, 0.2833), (0.155, -0.0906, 0.2794), (0.155, -0.175, 0.2677), (0.155, -0.2475, 0.2492), (0.155, -0.3031, 0.225), (0.155, -0.3381, 0.1969), (0.155, -0.35, 0.1667), (0.155, -0.3381, 0.1365), (0.155, -0.3031, 0.1083), (0.155, -0.2475, 0.0842), (0.155, -0.175, 0.0656), (0.155, -0.0906, 0.054), (0.155, 0, 0.05), (0.155, 0.0906, 0.054), (0.155, 0.175, 0.0656), (0.155, 0.2475, 0.0842), (0.155, 0.3031, 0.1083), (0.155, 0.3381, 0.1365)]
            color3f[] primvars:displayColor = [(0.1, 0.8, 0.2)]
            uniform bool doubleSided = 0
            uniform token subdivisionScheme = "none"
        }
    }

    # stop line
    over "OPENDRIVE_294__1" (
        prepend apiSchemas = ["SemanticsLabelsAPI:class"]
    )
    {
        token[] semantics:labels:class = ["road_marking", "stop_line"]

        over "Board"
        {
            float3[] extent = [(-0.15, -0.5, 0.2), (0.15, 0.5, 0.2)]
            int[] faceVertexCounts = [4]
            int[] faceVertexIndices = [0, 1, 2, 3]
            point3f[] points = [(-0.15, -0.5, 0.2), (0.15, -0.5, 0.2), (0.15, 0.5, 0.2), (-0.15, 0.5, 0.2)]
            color3f[] primvars:displayColor = [(0.95, 0.95, 0.95)]
        }
    }
}
